# xmcd CD database file
#
# Track frame offsets:
#	150
#	18857
#	46778
#	94035
#	115018
#	147414
#	168624
#	199578
#
# Disc length: 2937 seconds
#
# Revision: 0
# Processed by: cddbd v1.5PL3 Copyright (c) Steve Scherf et al.
# Submitted via: CDex 1.51
#
DISCID=600b7708
DTITLE=Nomoto Harumi (野本晴美) - Another Ordinary Day
DYEAR=2002
DGENRE=Jazz
TTITLE0=My Shining Hour
TTITLE1=Libra Sun
TTITLE2=Blues On Saturday
TTITLE3=Time Table Of Life
TTITLE4=Go-Ma
TTITLE5=You Only Know What I Know
TTITLE6=I Didn't Know What Time It Was
TTITLE7=Stardust
EXTD=YEAR: 2002
EXTT0=
EXTT1=
EXTT2=
EXTT3=
EXTT4=
EXTT5=
EXTT6=
EXTT7=
PLAYORDER=
